<?xml version="1.0" standalone="no"?>
<!DOCTYPE svg PUBLIC "-//W3C//DTD SVG 20010904//EN"
 "http://www.w3.org/TR/2001/REC-SVG-20010904/DTD/svg10.dtd">
<svg version="1.0" xmlns="http://www.w3.org/2000/svg"
 width="222.000000pt" height="222.000000pt" viewBox="0 0 222.000000 222.000000"
 preserveAspectRatio="xMidYMid meet">
<metadata>
Created by potrace 1.14, written by Peter Selinger 2001-2017
</metadata>
<g transform="translate(0.000000,222.000000) scale(0.100000,-0.100000)"
fill="#000000" stroke="none">
<path d="M989 2215 c-2 -1 -26 -6 -53 -9 -45 -6 -107 -21 -182 -44 -18 -6 -70
-28 -118 -50 -222 -104 -406 -284 -513 -502 -68 -139 -85 -189 -107 -315 -16
-91 -14 -309 3 -395 92 -454 451 -805 906 -884 79 -14 306 -15 370 -2 139 29
222 58 336 118 263 138 461 383 545 673 32 112 34 128 39 286 3 145 -12 252
-55 379 -67 199 -215 400 -395 536 -109 82 -285 159 -445 194 -50 11 -323 24
-331 15z"/>
</g>
</svg>
